<svg width="231" height="231" viewBox="0 0 231 231" fill="none" xmlns="http://www.w3.org/2000/svg">
<rect x="31" y="31" width="200" height="200" rx="16" fill="#F3F5F7"/>
<path d="M63 75C63 68.3726 68.3726 63 75 63H187C193.627 63 199 68.3726 199 75V231H63V75Z" fill="white"/>
<path d="M179.171 117.144C178.611 117.144 178.091 117.04 177.611 116.832C177.131 116.616 176.723 116.324 176.387 115.956C176.051 115.588 175.803 115.164 175.643 114.684L176.843 114.18C177.059 114.732 177.375 115.156 177.791 115.452C178.207 115.748 178.687 115.896 179.231 115.896C179.551 115.896 179.831 115.848 180.071 115.752C180.311 115.648 180.495 115.504 180.623 115.32C180.759 115.136 180.827 114.924 180.827 114.684C180.827 114.356 180.735 114.096 180.551 113.904C180.367 113.712 180.095 113.56 179.735 113.448L178.055 112.92C177.383 112.712 176.871 112.396 176.519 111.972C176.167 111.54 175.991 111.036 175.991 110.46C175.991 109.956 176.115 109.516 176.363 109.14C176.611 108.756 176.951 108.456 177.383 108.24C177.823 108.024 178.323 107.916 178.883 107.916C179.419 107.916 179.907 108.012 180.347 108.204C180.787 108.388 181.163 108.644 181.475 108.972C181.795 109.3 182.027 109.68 182.171 110.112L180.995 110.628C180.819 110.156 180.543 109.792 180.167 109.536C179.799 109.28 179.371 109.152 178.883 109.152C178.587 109.152 178.327 109.204 178.103 109.308C177.879 109.404 177.703 109.548 177.575 109.74C177.455 109.924 177.395 110.14 177.395 110.388C177.395 110.676 177.487 110.932 177.671 111.156C177.855 111.38 178.135 111.548 178.511 111.66L180.071 112.152C180.783 112.368 181.319 112.68 181.679 113.088C182.039 113.488 182.219 113.988 182.219 114.588C182.219 115.084 182.087 115.524 181.823 115.908C181.567 116.292 181.211 116.596 180.755 116.82C180.299 117.036 179.771 117.144 179.171 117.144ZM178.619 118.2V106.86H179.579V118.2H178.619Z" fill="#C3D4E9"/>
<path d="M179.171 140.144C178.611 140.144 178.091 140.04 177.611 139.832C177.131 139.616 176.723 139.324 176.387 138.956C176.051 138.588 175.803 138.164 175.643 137.684L176.843 137.18C177.059 137.732 177.375 138.156 177.791 138.452C178.207 138.748 178.687 138.896 179.231 138.896C179.551 138.896 179.831 138.848 180.071 138.752C180.311 138.648 180.495 138.504 180.623 138.32C180.759 138.136 180.827 137.924 180.827 137.684C180.827 137.356 180.735 137.096 180.551 136.904C180.367 136.712 180.095 136.56 179.735 136.448L178.055 135.92C177.383 135.712 176.871 135.396 176.519 134.972C176.167 134.54 175.991 134.036 175.991 133.46C175.991 132.956 176.115 132.516 176.363 132.14C176.611 131.756 176.951 131.456 177.383 131.24C177.823 131.024 178.323 130.916 178.883 130.916C179.419 130.916 179.907 131.012 180.347 131.204C180.787 131.388 181.163 131.644 181.475 131.972C181.795 132.3 182.027 132.68 182.171 133.112L180.995 133.628C180.819 133.156 180.543 132.792 180.167 132.536C179.799 132.28 179.371 132.152 178.883 132.152C178.587 132.152 178.327 132.204 178.103 132.308C177.879 132.404 177.703 132.548 177.575 132.74C177.455 132.924 177.395 133.14 177.395 133.388C177.395 133.676 177.487 133.932 177.671 134.156C177.855 134.38 178.135 134.548 178.511 134.66L180.071 135.152C180.783 135.368 181.319 135.68 181.679 136.088C182.039 136.488 182.219 136.988 182.219 137.588C182.219 138.084 182.087 138.524 181.823 138.908C181.567 139.292 181.211 139.596 180.755 139.82C180.299 140.036 179.771 140.144 179.171 140.144ZM178.619 141.2V129.86H179.579V141.2H178.619Z" fill="#C3D4E9"/>
<path d="M179.171 163.144C178.611 163.144 178.091 163.04 177.611 162.832C177.131 162.616 176.723 162.324 176.387 161.956C176.051 161.588 175.803 161.164 175.643 160.684L176.843 160.18C177.059 160.732 177.375 161.156 177.791 161.452C178.207 161.748 178.687 161.896 179.231 161.896C179.551 161.896 179.831 161.848 180.071 161.752C180.311 161.648 180.495 161.504 180.623 161.32C180.759 161.136 180.827 160.924 180.827 160.684C180.827 160.356 180.735 160.096 180.551 159.904C180.367 159.712 180.095 159.56 179.735 159.448L178.055 158.92C177.383 158.712 176.871 158.396 176.519 157.972C176.167 157.54 175.991 157.036 175.991 156.46C175.991 155.956 176.115 155.516 176.363 155.14C176.611 154.756 176.951 154.456 177.383 154.24C177.823 154.024 178.323 153.916 178.883 153.916C179.419 153.916 179.907 154.012 180.347 154.204C180.787 154.388 181.163 154.644 181.475 154.972C181.795 155.3 182.027 155.68 182.171 156.112L180.995 156.628C180.819 156.156 180.543 155.792 180.167 155.536C179.799 155.28 179.371 155.152 178.883 155.152C178.587 155.152 178.327 155.204 178.103 155.308C177.879 155.404 177.703 155.548 177.575 155.74C177.455 155.924 177.395 156.14 177.395 156.388C177.395 156.676 177.487 156.932 177.671 157.156C177.855 157.38 178.135 157.548 178.511 157.66L180.071 158.152C180.783 158.368 181.319 158.68 181.679 159.088C182.039 159.488 182.219 159.988 182.219 160.588C182.219 161.084 182.087 161.524 181.823 161.908C181.567 162.292 181.211 162.596 180.755 162.82C180.299 163.036 179.771 163.144 179.171 163.144ZM178.619 164.2V152.86H179.579V164.2H178.619Z" fill="#C3D4E9"/>
<path d="M179.171 186.144C178.611 186.144 178.091 186.04 177.611 185.832C177.131 185.616 176.723 185.324 176.387 184.956C176.051 184.588 175.803 184.164 175.643 183.684L176.843 183.18C177.059 183.732 177.375 184.156 177.791 184.452C178.207 184.748 178.687 184.896 179.231 184.896C179.551 184.896 179.831 184.848 180.071 184.752C180.311 184.648 180.495 184.504 180.623 184.32C180.759 184.136 180.827 183.924 180.827 183.684C180.827 183.356 180.735 183.096 180.551 182.904C180.367 182.712 180.095 182.56 179.735 182.448L178.055 181.92C177.383 181.712 176.871 181.396 176.519 180.972C176.167 180.54 175.991 180.036 175.991 179.46C175.991 178.956 176.115 178.516 176.363 178.14C176.611 177.756 176.951 177.456 177.383 177.24C177.823 177.024 178.323 176.916 178.883 176.916C179.419 176.916 179.907 177.012 180.347 177.204C180.787 177.388 181.163 177.644 181.475 177.972C181.795 178.3 182.027 178.68 182.171 179.112L180.995 179.628C180.819 179.156 180.543 178.792 180.167 178.536C179.799 178.28 179.371 178.152 178.883 178.152C178.587 178.152 178.327 178.204 178.103 178.308C177.879 178.404 177.703 178.548 177.575 178.74C177.455 178.924 177.395 179.14 177.395 179.388C177.395 179.676 177.487 179.932 177.671 180.156C177.855 180.38 178.135 180.548 178.511 180.66L180.071 181.152C180.783 181.368 181.319 181.68 181.679 182.088C182.039 182.488 182.219 182.988 182.219 183.588C182.219 184.084 182.087 184.524 181.823 184.908C181.567 185.292 181.211 185.596 180.755 185.82C180.299 186.036 179.771 186.144 179.171 186.144ZM178.619 187.2V175.86H179.579V187.2H178.619Z" fill="#C3D4E9"/>
<path d="M179.171 209.144C178.611 209.144 178.091 209.04 177.611 208.832C177.131 208.616 176.723 208.324 176.387 207.956C176.051 207.588 175.803 207.164 175.643 206.684L176.843 206.18C177.059 206.732 177.375 207.156 177.791 207.452C178.207 207.748 178.687 207.896 179.231 207.896C179.551 207.896 179.831 207.848 180.071 207.752C180.311 207.648 180.495 207.504 180.623 207.32C180.759 207.136 180.827 206.924 180.827 206.684C180.827 206.356 180.735 206.096 180.551 205.904C180.367 205.712 180.095 205.56 179.735 205.448L178.055 204.92C177.383 204.712 176.871 204.396 176.519 203.972C176.167 203.54 175.991 203.036 175.991 202.46C175.991 201.956 176.115 201.516 176.363 201.14C176.611 200.756 176.951 200.456 177.383 200.24C177.823 200.024 178.323 199.916 178.883 199.916C179.419 199.916 179.907 200.012 180.347 200.204C180.787 200.388 181.163 200.644 181.475 200.972C181.795 201.3 182.027 201.68 182.171 202.112L180.995 202.628C180.819 202.156 180.543 201.792 180.167 201.536C179.799 201.28 179.371 201.152 178.883 201.152C178.587 201.152 178.327 201.204 178.103 201.308C177.879 201.404 177.703 201.548 177.575 201.74C177.455 201.924 177.395 202.14 177.395 202.388C177.395 202.676 177.487 202.932 177.671 203.156C177.855 203.38 178.135 203.548 178.511 203.66L180.071 204.152C180.783 204.368 181.319 204.68 181.679 205.088C182.039 205.488 182.219 205.988 182.219 206.588C182.219 207.084 182.087 207.524 181.823 207.908C181.567 208.292 181.211 208.596 180.755 208.82C180.299 209.036 179.771 209.144 179.171 209.144ZM178.619 210.2V198.86H179.579V210.2H178.619Z" fill="#C3D4E9"/>
<path d="M105.414 91V82.06H111.306V83.32H106.83V85.888H111.066V87.148H106.83V89.74H111.306V91H105.414ZM111.601 91L113.869 87.748L111.601 84.508H113.197L115.057 87.22H114.289L116.149 84.508H117.745L115.465 87.748L117.733 91H116.137L114.301 88.276H115.045L113.197 91H111.601ZM118.431 93.4V84.508H119.727V85.852L119.571 85.54C119.811 85.172 120.131 84.884 120.531 84.676C120.931 84.468 121.387 84.364 121.899 84.364C122.515 84.364 123.067 84.512 123.555 84.808C124.051 85.104 124.439 85.508 124.719 86.02C125.007 86.532 125.151 87.108 125.151 87.748C125.151 88.388 125.007 88.964 124.719 89.476C124.439 89.988 124.055 90.396 123.567 90.7C123.079 90.996 122.523 91.144 121.899 91.144C121.395 91.144 120.935 91.04 120.519 90.832C120.111 90.624 119.795 90.324 119.571 89.932L119.787 89.68V93.4H118.431ZM121.767 89.884C122.151 89.884 122.491 89.792 122.787 89.608C123.083 89.424 123.315 89.172 123.483 88.852C123.659 88.524 123.747 88.156 123.747 87.748C123.747 87.34 123.659 86.976 123.483 86.656C123.315 86.336 123.083 86.084 122.787 85.9C122.491 85.716 122.151 85.624 121.767 85.624C121.391 85.624 121.051 85.716 120.747 85.9C120.451 86.084 120.215 86.336 120.039 86.656C119.871 86.976 119.787 87.34 119.787 87.748C119.787 88.156 119.871 88.524 120.039 88.852C120.215 89.172 120.451 89.424 120.747 89.608C121.051 89.792 121.391 89.884 121.767 89.884ZM129.278 91.144C128.63 91.144 128.054 90.996 127.55 90.7C127.054 90.396 126.666 89.988 126.386 89.476C126.106 88.956 125.966 88.376 125.966 87.736C125.966 87.08 126.106 86.5 126.386 85.996C126.674 85.492 127.058 85.096 127.538 84.808C128.018 84.512 128.562 84.364 129.17 84.364C129.658 84.364 130.094 84.448 130.478 84.616C130.862 84.784 131.186 85.016 131.45 85.312C131.714 85.6 131.914 85.932 132.05 86.308C132.194 86.684 132.266 87.084 132.266 87.508C132.266 87.612 132.262 87.72 132.254 87.832C132.246 87.944 132.23 88.048 132.206 88.144H127.034V87.064H131.438L130.79 87.556C130.87 87.164 130.842 86.816 130.706 86.512C130.578 86.2 130.378 85.956 130.106 85.78C129.842 85.596 129.53 85.504 129.17 85.504C128.81 85.504 128.49 85.596 128.21 85.78C127.93 85.956 127.714 86.212 127.562 86.548C127.41 86.876 127.35 87.276 127.382 87.748C127.342 88.188 127.402 88.572 127.562 88.9C127.73 89.228 127.962 89.484 128.258 89.668C128.562 89.852 128.906 89.944 129.29 89.944C129.682 89.944 130.014 89.856 130.286 89.68C130.566 89.504 130.786 89.276 130.946 88.996L132.05 89.536C131.922 89.84 131.722 90.116 131.45 90.364C131.186 90.604 130.866 90.796 130.49 90.94C130.122 91.076 129.718 91.144 129.278 91.144ZM133.35 91V84.508H134.646V85.78L134.49 85.612C134.65 85.204 134.906 84.896 135.258 84.688C135.61 84.472 136.018 84.364 136.482 84.364C136.962 84.364 137.386 84.468 137.754 84.676C138.122 84.884 138.41 85.172 138.618 85.54C138.826 85.908 138.93 86.332 138.93 86.812V91H137.586V87.172C137.586 86.844 137.526 86.568 137.406 86.344C137.286 86.112 137.114 85.936 136.89 85.816C136.674 85.688 136.426 85.624 136.146 85.624C135.866 85.624 135.614 85.688 135.39 85.816C135.174 85.936 135.006 86.112 134.886 86.344C134.766 86.576 134.706 86.852 134.706 87.172V91H133.35ZM142.541 91.144C141.877 91.144 141.293 90.98 140.789 90.652C140.293 90.324 139.945 89.884 139.745 89.332L140.789 88.84C140.965 89.208 141.205 89.5 141.509 89.716C141.821 89.932 142.165 90.04 142.541 90.04C142.861 90.04 143.121 89.968 143.321 89.824C143.521 89.68 143.621 89.484 143.621 89.236C143.621 89.076 143.577 88.948 143.489 88.852C143.401 88.748 143.289 88.664 143.153 88.6C143.025 88.536 142.893 88.488 142.757 88.456L141.737 88.168C141.177 88.008 140.757 87.768 140.477 87.448C140.205 87.12 140.069 86.74 140.069 86.308C140.069 85.916 140.169 85.576 140.369 85.288C140.569 84.992 140.845 84.764 141.197 84.604C141.549 84.444 141.945 84.364 142.385 84.364C142.977 84.364 143.505 84.512 143.969 84.808C144.433 85.096 144.761 85.5 144.953 86.02L143.909 86.512C143.781 86.2 143.577 85.952 143.297 85.768C143.025 85.584 142.717 85.492 142.373 85.492C142.077 85.492 141.841 85.564 141.665 85.708C141.489 85.844 141.401 86.024 141.401 86.248C141.401 86.4 141.441 86.528 141.521 86.632C141.601 86.728 141.705 86.808 141.833 86.872C141.961 86.928 142.093 86.976 142.229 87.016L143.285 87.328C143.821 87.48 144.233 87.72 144.521 88.048C144.809 88.368 144.953 88.752 144.953 89.2C144.953 89.584 144.849 89.924 144.641 90.22C144.441 90.508 144.161 90.736 143.801 90.904C143.441 91.064 143.021 91.144 142.541 91.144ZM149.09 91.144C148.442 91.144 147.866 90.996 147.362 90.7C146.866 90.396 146.478 89.988 146.198 89.476C145.918 88.956 145.778 88.376 145.778 87.736C145.778 87.08 145.918 86.5 146.198 85.996C146.486 85.492 146.87 85.096 147.35 84.808C147.83 84.512 148.374 84.364 148.982 84.364C149.47 84.364 149.906 84.448 150.29 84.616C150.674 84.784 150.998 85.016 151.262 85.312C151.526 85.6 151.726 85.932 151.862 86.308C152.006 86.684 152.078 87.084 152.078 87.508C152.078 87.612 152.074 87.72 152.066 87.832C152.058 87.944 152.042 88.048 152.018 88.144H146.846V87.064H151.25L150.602 87.556C150.682 87.164 150.654 86.816 150.518 86.512C150.39 86.2 150.19 85.956 149.918 85.78C149.654 85.596 149.342 85.504 148.982 85.504C148.622 85.504 148.302 85.596 148.022 85.78C147.742 85.956 147.526 86.212 147.374 86.548C147.222 86.876 147.162 87.276 147.194 87.748C147.154 88.188 147.214 88.572 147.374 88.9C147.542 89.228 147.774 89.484 148.07 89.668C148.374 89.852 148.718 89.944 149.102 89.944C149.494 89.944 149.826 89.856 150.098 89.68C150.378 89.504 150.598 89.276 150.758 88.996L151.862 89.536C151.734 89.84 151.534 90.116 151.262 90.364C150.998 90.604 150.678 90.796 150.302 90.94C149.934 91.076 149.53 91.144 149.09 91.144ZM155.561 91.144C154.897 91.144 154.313 90.98 153.809 90.652C153.313 90.324 152.965 89.884 152.765 89.332L153.809 88.84C153.985 89.208 154.225 89.5 154.529 89.716C154.841 89.932 155.185 90.04 155.561 90.04C155.881 90.04 156.141 89.968 156.341 89.824C156.541 89.68 156.641 89.484 156.641 89.236C156.641 89.076 156.597 88.948 156.509 88.852C156.421 88.748 156.309 88.664 156.173 88.6C156.045 88.536 155.913 88.488 155.777 88.456L154.757 88.168C154.197 88.008 153.777 87.768 153.497 87.448C153.225 87.12 153.089 86.74 153.089 86.308C153.089 85.916 153.189 85.576 153.389 85.288C153.589 84.992 153.865 84.764 154.217 84.604C154.569 84.444 154.965 84.364 155.405 84.364C155.997 84.364 156.525 84.512 156.989 84.808C157.453 85.096 157.781 85.5 157.973 86.02L156.929 86.512C156.801 86.2 156.597 85.952 156.317 85.768C156.045 85.584 155.737 85.492 155.393 85.492C155.097 85.492 154.861 85.564 154.685 85.708C154.509 85.844 154.421 86.024 154.421 86.248C154.421 86.4 154.461 86.528 154.541 86.632C154.621 86.728 154.725 86.808 154.853 86.872C154.981 86.928 155.113 86.976 155.249 87.016L156.305 87.328C156.841 87.48 157.253 87.72 157.541 88.048C157.829 88.368 157.973 88.752 157.973 89.2C157.973 89.584 157.869 89.924 157.661 90.22C157.461 90.508 157.181 90.736 156.821 90.904C156.461 91.064 156.041 91.144 155.561 91.144Z" fill="#1A202C"/>
<rect x="79" y="110" width="41" height="5" rx="2.5" fill="#C3D4E9"/>
<rect x="79" y="133" width="79" height="5" rx="2.5" fill="#C3D4E9"/>
<rect x="79" y="156" width="60" height="5" rx="2.5" fill="#C3D4E9"/>
<rect x="79" y="179" width="31" height="5" rx="2.5" fill="#C3D4E9"/>
<rect x="114" y="179" width="31" height="5" rx="2.5" fill="#C3D4E9"/>
<rect x="79" y="202" width="75" height="5" rx="2.5" fill="#C3D4E9"/>
<circle cx="31" cy="31" r="28" fill="#7C5CFC" stroke="#0D121F" stroke-width="6"/>
<path d="M25.5281 41V38.96L30.4241 33.728C31.3841 32.704 32.1361 31.88 32.6801 31.256C33.2401 30.616 33.6401 30.056 33.8801 29.576C34.1361 29.096 34.2641 28.592 34.2641 28.064C34.2641 27.2 34.0001 26.536 33.4721 26.072C32.9441 25.592 32.2641 25.352 31.4321 25.352C30.5681 25.352 29.8241 25.6 29.2001 26.096C28.5761 26.576 28.1441 27.28 27.9041 28.208L25.4081 27.488C25.6001 26.544 25.9841 25.728 26.5601 25.04C27.1361 24.336 27.8401 23.792 28.6721 23.408C29.5201 23.024 30.4321 22.832 31.4081 22.832C32.5441 22.832 33.5361 23.048 34.3841 23.48C35.2321 23.896 35.8881 24.48 36.3521 25.232C36.8321 25.984 37.0721 26.856 37.0721 27.848C37.0721 28.504 36.9441 29.144 36.6881 29.768C36.4481 30.376 36.0721 31.024 35.5601 31.712C35.0481 32.384 34.3921 33.144 33.5921 33.992L29.2721 38.6H37.4081V41H25.5281Z" fill="white"/>
</svg>
