<svg width="230" height="231" viewBox="0 0 230 231" fill="none" xmlns="http://www.w3.org/2000/svg">
<rect x="30" y="31" width="200" height="200" rx="16" fill="#F3F5F7"/>
<path d="M62 75C62 68.3726 67.3726 63 74 63H230V231H62V75Z" fill="white"/>
<path d="M106 97C100.49 97 96 101.49 96 107C96 112.51 100.49 117 106 117C111.51 117 116 112.51 116 107C116 101.49 111.51 97 106 97ZM110.78 104.7L105.11 110.37C104.97 110.51 104.78 110.59 104.58 110.59C104.38 110.59 104.19 110.51 104.05 110.37L101.22 107.54C100.93 107.25 100.93 106.77 101.22 106.48C101.51 106.19 101.99 106.19 102.28 106.48L104.58 108.78L109.72 103.64C110.01 103.35 110.49 103.35 110.78 103.64C111.07 103.93 111.07 104.4 110.78 104.7Z" fill="#9CD323"/>
<rect x="130" y="95" width="100" height="5" rx="2.5" fill="#C3D4E9"/>
<rect x="130" y="112" width="100" height="5" rx="2.5" fill="#C3D4E9"/>
<rect x="130" y="129" width="100" height="5" rx="2.5" fill="#C3D4E9"/>
<path d="M106 160C100.49 160 96 164.49 96 170C96 175.51 100.49 180 106 180C111.51 180 116 175.51 116 170C116 164.49 111.51 160 106 160ZM110.78 167.7L105.11 173.37C104.97 173.51 104.78 173.59 104.58 173.59C104.38 173.59 104.19 173.51 104.05 173.37L101.22 170.54C100.93 170.25 100.93 169.77 101.22 169.48C101.51 169.19 101.99 169.19 102.28 169.48L104.58 171.78L109.72 166.64C110.01 166.35 110.49 166.35 110.78 166.64C111.07 166.93 111.07 167.4 110.78 167.7Z" fill="#9CD323"/>
<rect x="130" y="158" width="100" height="5" rx="2.5" fill="#C3D4E9"/>
<rect x="130" y="175" width="100" height="5" rx="2.5" fill="#C3D4E9"/>
<rect x="130" y="192" width="100" height="5" rx="2.5" fill="#C3D4E9"/>
<circle cx="31" cy="31" r="28" fill="#7C5CFC" stroke="#0D121F" stroke-width="6"/>
<path d="M31.1961 41.288C30.2361 41.288 29.3321 41.112 28.4841 40.76C27.6521 40.408 26.9321 39.912 26.3241 39.272C25.7321 38.632 25.3081 37.88 25.0521 37.016L27.4521 36.104C27.7721 36.952 28.2601 37.608 28.9161 38.072C29.5721 38.536 30.3321 38.768 31.1961 38.768C31.9001 38.768 32.5081 38.632 33.0201 38.36C33.5481 38.088 33.9561 37.704 34.2441 37.208C34.5481 36.712 34.7001 36.112 34.7001 35.408C34.7001 34.72 34.5481 34.128 34.2441 33.632C33.9561 33.136 33.5481 32.76 33.0201 32.504C32.5081 32.248 31.9001 32.12 31.1961 32.12C30.9081 32.12 30.6121 32.144 30.3081 32.192C30.0201 32.24 29.7641 32.304 29.5401 32.384L28.9161 31.064L33.6201 25.52H26.0121V23.12H36.7881V25.4L32.1801 30.92L32.1081 30.008C33.1801 30.024 34.1241 30.264 34.9401 30.728C35.7561 31.176 36.3881 31.8 36.8361 32.6C37.3001 33.384 37.5321 34.296 37.5321 35.336C37.5321 36.456 37.2601 37.472 36.7161 38.384C36.1721 39.28 35.4201 39.992 34.4601 40.52C33.5161 41.032 32.4281 41.288 31.1961 41.288Z" fill="white"/>
</svg>
