<svg width="225" height="225" viewBox="0 0 225 225" fill="none" xmlns="http://www.w3.org/2000/svg">
<rect x="25" y="25" width="200" height="200" rx="16" fill="#F3F5F7"/>
<path d="M57 69C57 62.3726 62.3726 57 69 57H225V225H57V69Z" fill="white"/>
<path d="M85.236 95.144C84.588 95.144 84.012 95.008 83.508 94.736C83.012 94.464 82.624 94.092 82.344 93.62C82.072 93.14 81.936 92.596 81.936 91.988V86.06H83.124V91.964C83.124 92.372 83.212 92.736 83.388 93.056C83.572 93.368 83.82 93.612 84.132 93.788C84.452 93.964 84.82 94.052 85.236 94.052C85.652 94.052 86.016 93.964 86.328 93.788C86.648 93.612 86.896 93.368 87.072 93.056C87.256 92.736 87.348 92.372 87.348 91.964V86.06H88.536V91.988C88.536 92.596 88.396 93.14 88.116 93.62C87.844 94.092 87.46 94.464 86.964 94.736C86.468 95.008 85.892 95.144 85.236 95.144ZM92.4127 95.144C91.7647 95.144 91.2007 94.984 90.7207 94.664C90.2407 94.344 89.9007 93.912 89.7007 93.368L90.5887 92.936C90.7727 93.32 91.0247 93.624 91.3447 93.848C91.6647 94.072 92.0207 94.184 92.4127 94.184C92.7647 94.184 93.0567 94.1 93.2887 93.932C93.5207 93.764 93.6367 93.544 93.6367 93.272C93.6367 93.08 93.5807 92.928 93.4687 92.816C93.3647 92.696 93.2367 92.604 93.0847 92.54C92.9327 92.468 92.7927 92.416 92.6647 92.384L91.6927 92.108C91.1087 91.94 90.6807 91.7 90.4087 91.388C90.1447 91.076 90.0127 90.712 90.0127 90.296C90.0127 89.912 90.1087 89.58 90.3007 89.3C90.5007 89.012 90.7687 88.788 91.1047 88.628C91.4487 88.468 91.8327 88.388 92.2567 88.388C92.8247 88.388 93.3327 88.532 93.7807 88.82C94.2367 89.108 94.5607 89.512 94.7527 90.032L93.8407 90.452C93.6967 90.116 93.4807 89.852 93.1927 89.66C92.9047 89.46 92.5807 89.36 92.2207 89.36C91.8927 89.36 91.6327 89.444 91.4407 89.612C91.2487 89.772 91.1527 89.976 91.1527 90.224C91.1527 90.408 91.2007 90.56 91.2967 90.68C91.3927 90.792 91.5087 90.88 91.6447 90.944C91.7807 91 91.9127 91.048 92.0407 91.088L93.0967 91.4C93.6247 91.552 94.0327 91.788 94.3207 92.108C94.6167 92.428 94.7647 92.812 94.7647 93.26C94.7647 93.62 94.6647 93.944 94.4647 94.232C94.2647 94.52 93.9887 94.744 93.6367 94.904C93.2847 95.064 92.8767 95.144 92.4127 95.144ZM98.9616 95.144C98.3376 95.144 97.7816 94.996 97.2936 94.7C96.8056 94.404 96.4216 94 96.1416 93.488C95.8616 92.968 95.7216 92.388 95.7216 91.748C95.7216 91.1 95.8576 90.524 96.1296 90.02C96.4096 89.516 96.7856 89.12 97.2576 88.832C97.7376 88.536 98.2736 88.388 98.8656 88.388C99.3456 88.388 99.7696 88.476 100.138 88.652C100.514 88.82 100.83 89.052 101.086 89.348C101.35 89.636 101.55 89.968 101.686 90.344C101.83 90.712 101.902 91.096 101.902 91.496C101.902 91.584 101.894 91.684 101.878 91.796C101.87 91.9 101.858 92 101.842 92.096H96.5376V91.136H101.194L100.666 91.568C100.738 91.152 100.698 90.78 100.546 90.452C100.394 90.124 100.17 89.864 99.8736 89.672C99.5776 89.48 99.2416 89.384 98.8656 89.384C98.4896 89.384 98.1456 89.48 97.8336 89.672C97.5216 89.864 97.2776 90.14 97.1016 90.5C96.9336 90.852 96.8656 91.272 96.8976 91.76C96.8656 92.232 96.9376 92.648 97.1136 93.008C97.2976 93.36 97.5536 93.636 97.8816 93.836C98.2176 94.028 98.5816 94.124 98.9736 94.124C99.4056 94.124 99.7696 94.024 100.066 93.824C100.362 93.624 100.602 93.368 100.786 93.056L101.722 93.536C101.594 93.832 101.394 94.104 101.122 94.352C100.858 94.592 100.542 94.784 100.174 94.928C99.8136 95.072 99.4096 95.144 98.9616 95.144ZM103.117 95V88.532H104.209V89.72L104.089 89.552C104.241 89.184 104.473 88.912 104.785 88.736C105.097 88.552 105.477 88.46 105.925 88.46H106.321V89.516H105.757C105.301 89.516 104.933 89.66 104.653 89.948C104.373 90.228 104.233 90.628 104.233 91.148V95H103.117ZM107.072 95V88.532H108.164V89.792L107.984 89.684C108.144 89.276 108.4 88.96 108.752 88.736C109.112 88.504 109.532 88.388 110.012 88.388C110.476 88.388 110.888 88.492 111.248 88.7C111.616 88.908 111.904 89.196 112.112 89.564C112.328 89.932 112.436 90.348 112.436 90.812V95H111.308V91.172C111.308 90.812 111.244 90.508 111.116 90.26C110.988 90.012 110.804 89.82 110.564 89.684C110.332 89.54 110.064 89.468 109.76 89.468C109.456 89.468 109.184 89.54 108.944 89.684C108.712 89.82 108.528 90.016 108.392 90.272C108.256 90.52 108.188 90.82 108.188 91.172V95H107.072ZM115.689 95.144C115.265 95.144 114.889 95.068 114.561 94.916C114.241 94.756 113.989 94.54 113.805 94.268C113.621 93.988 113.529 93.668 113.529 93.308C113.529 92.964 113.601 92.656 113.745 92.384C113.897 92.104 114.129 91.868 114.441 91.676C114.761 91.484 115.161 91.348 115.641 91.268L118.041 90.872V91.808L115.893 92.168C115.477 92.24 115.173 92.372 114.981 92.564C114.797 92.756 114.705 92.992 114.705 93.272C114.705 93.536 114.809 93.756 115.017 93.932C115.233 94.108 115.501 94.196 115.821 94.196C116.229 94.196 116.581 94.112 116.877 93.944C117.181 93.768 117.417 93.532 117.585 93.236C117.761 92.94 117.849 92.612 117.849 92.252V90.608C117.849 90.256 117.717 89.972 117.453 89.756C117.197 89.532 116.857 89.42 116.433 89.42C116.065 89.42 115.737 89.516 115.449 89.708C115.169 89.892 114.961 90.14 114.825 90.452L113.853 89.948C113.973 89.652 114.165 89.388 114.429 89.156C114.693 88.916 115.001 88.728 115.353 88.592C115.705 88.456 116.073 88.388 116.457 88.388C116.953 88.388 117.389 88.484 117.765 88.676C118.141 88.86 118.433 89.12 118.641 89.456C118.857 89.784 118.965 90.168 118.965 90.608V95H117.873V93.776L118.077 93.848C117.941 94.104 117.757 94.328 117.525 94.52C117.293 94.712 117.021 94.864 116.709 94.976C116.397 95.088 116.057 95.144 115.689 95.144ZM120.455 95V88.532H121.547V89.852L121.391 89.648C121.551 89.24 121.807 88.928 122.159 88.712C122.511 88.496 122.907 88.388 123.347 88.388C123.851 88.388 124.303 88.528 124.703 88.808C125.111 89.088 125.391 89.456 125.543 89.912L125.231 89.924C125.399 89.42 125.683 89.04 126.083 88.784C126.483 88.52 126.927 88.388 127.415 88.388C127.863 88.388 128.267 88.492 128.627 88.7C128.995 88.908 129.287 89.196 129.503 89.564C129.719 89.932 129.827 90.348 129.827 90.812V95H128.699V91.172C128.699 90.812 128.635 90.508 128.507 90.26C128.379 90.012 128.203 89.82 127.979 89.684C127.763 89.54 127.507 89.468 127.211 89.468C126.923 89.468 126.663 89.54 126.431 89.684C126.207 89.82 126.027 90.016 125.891 90.272C125.763 90.52 125.699 90.82 125.699 91.172V95H124.571V91.172C124.571 90.812 124.507 90.508 124.379 90.26C124.251 90.012 124.075 89.82 123.851 89.684C123.635 89.54 123.379 89.468 123.083 89.468C122.795 89.468 122.535 89.54 122.303 89.684C122.079 89.82 121.899 90.016 121.763 90.272C121.635 90.52 121.571 90.82 121.571 91.172V95H120.455ZM134.148 95.144C133.524 95.144 132.968 94.996 132.48 94.7C131.992 94.404 131.608 94 131.328 93.488C131.048 92.968 130.908 92.388 130.908 91.748C130.908 91.1 131.044 90.524 131.316 90.02C131.596 89.516 131.972 89.12 132.444 88.832C132.924 88.536 133.46 88.388 134.052 88.388C134.532 88.388 134.956 88.476 135.324 88.652C135.7 88.82 136.016 89.052 136.272 89.348C136.536 89.636 136.736 89.968 136.872 90.344C137.016 90.712 137.088 91.096 137.088 91.496C137.088 91.584 137.08 91.684 137.064 91.796C137.056 91.9 137.044 92 137.028 92.096H131.724V91.136H136.38L135.852 91.568C135.924 91.152 135.884 90.78 135.732 90.452C135.58 90.124 135.356 89.864 135.06 89.672C134.764 89.48 134.428 89.384 134.052 89.384C133.676 89.384 133.332 89.48 133.02 89.672C132.708 89.864 132.464 90.14 132.288 90.5C132.12 90.852 132.052 91.272 132.084 91.76C132.052 92.232 132.124 92.648 132.3 93.008C132.484 93.36 132.74 93.636 133.068 93.836C133.404 94.028 133.768 94.124 134.16 94.124C134.592 94.124 134.956 94.024 135.252 93.824C135.548 93.624 135.788 93.368 135.972 93.056L136.908 93.536C136.78 93.832 136.58 94.104 136.308 94.352C136.044 94.592 135.728 94.784 135.36 94.928C135 95.072 134.596 95.144 134.148 95.144Z" fill="#1A202C"/>
<rect x="81" y="104" width="144" height="30" rx="2" fill="#F3F5F7"/>
<path d="M94.056 127.64C93.928 127.64 93.796 127.628 93.66 127.604C93.532 127.588 93.404 127.556 93.276 127.508V126.668C93.356 126.676 93.456 126.688 93.576 126.704C93.704 126.728 93.832 126.74 93.96 126.74C94.352 126.74 94.652 126.656 94.86 126.488C95.068 126.328 95.272 126.016 95.472 125.552L95.88 124.592L95.856 125.384L93.132 118.568H94.104L96.336 124.196H96.084L98.304 118.568H99.3L96.36 125.816C96.232 126.128 96.068 126.424 95.868 126.704C95.676 126.984 95.432 127.208 95.136 127.376C94.84 127.552 94.48 127.64 94.056 127.64ZM103.132 125.144C102.524 125.144 101.972 125 101.476 124.712C100.98 124.416 100.584 124.016 100.288 123.512C100 123 99.8564 122.42 99.8564 121.772C99.8564 121.132 100 120.56 100.288 120.056C100.576 119.552 100.964 119.156 101.452 118.868C101.948 118.572 102.508 118.424 103.132 118.424C103.756 118.424 104.312 118.568 104.8 118.856C105.296 119.144 105.684 119.54 105.964 120.044C106.252 120.548 106.396 121.124 106.396 121.772C106.396 122.428 106.248 123.012 105.952 123.524C105.656 124.028 105.26 124.424 104.764 124.712C104.276 125 103.732 125.144 103.132 125.144ZM103.132 124.244C103.564 124.244 103.952 124.136 104.296 123.92C104.648 123.704 104.924 123.408 105.124 123.032C105.332 122.656 105.436 122.236 105.436 121.772C105.436 121.308 105.332 120.892 105.124 120.524C104.924 120.156 104.648 119.864 104.296 119.648C103.952 119.432 103.564 119.324 103.132 119.324C102.7 119.324 102.308 119.432 101.956 119.648C101.612 119.864 101.336 120.156 101.128 120.524C100.92 120.892 100.816 121.308 100.816 121.772C100.816 122.236 100.92 122.656 101.128 123.032C101.336 123.408 101.612 123.704 101.956 123.92C102.308 124.136 102.7 124.244 103.132 124.244ZM110.144 125.144C109.696 125.144 109.288 125.04 108.92 124.832C108.552 124.616 108.26 124.32 108.044 123.944C107.836 123.56 107.732 123.12 107.732 122.624V118.568H108.632V122.516C108.632 122.86 108.7 123.164 108.836 123.428C108.98 123.684 109.176 123.884 109.424 124.028C109.68 124.172 109.972 124.244 110.3 124.244C110.628 124.244 110.92 124.172 111.176 124.028C111.432 123.876 111.632 123.664 111.776 123.392C111.92 123.112 111.992 122.78 111.992 122.396V118.568H112.892V125H111.992V123.752L112.196 123.8C112.044 124.216 111.784 124.544 111.416 124.784C111.048 125.024 110.624 125.144 110.144 125.144ZM114.623 125V118.568H115.523V119.624L115.403 119.468C115.555 119.164 115.783 118.924 116.087 118.748C116.399 118.572 116.775 118.484 117.215 118.484H117.623V119.384H117.059C116.595 119.384 116.223 119.528 115.943 119.816C115.663 120.104 115.523 120.512 115.523 121.04V125H114.623ZM118.521 125.84V125H123.921V125.84H118.521ZM127.889 125.144C127.441 125.144 127.033 125.04 126.665 124.832C126.297 124.616 126.005 124.32 125.789 123.944C125.581 123.56 125.477 123.12 125.477 122.624V118.568H126.377V122.516C126.377 122.86 126.445 123.164 126.581 123.428C126.725 123.684 126.921 123.884 127.169 124.028C127.425 124.172 127.717 124.244 128.045 124.244C128.373 124.244 128.665 124.172 128.921 124.028C129.177 123.876 129.377 123.664 129.521 123.392C129.665 123.112 129.737 122.78 129.737 122.396V118.568H130.637V125H129.737V123.752L129.941 123.8C129.789 124.216 129.529 124.544 129.161 124.784C128.793 125.024 128.369 125.144 127.889 125.144ZM134.6 125.144C133.984 125.144 133.444 124.988 132.98 124.676C132.516 124.364 132.18 123.94 131.972 123.404L132.728 123.044C132.912 123.436 133.168 123.748 133.496 123.98C133.832 124.212 134.2 124.328 134.6 124.328C134.984 124.328 135.308 124.236 135.572 124.052C135.836 123.86 135.968 123.612 135.968 123.308C135.968 123.084 135.904 122.908 135.776 122.78C135.648 122.644 135.5 122.54 135.332 122.468C135.164 122.396 135.016 122.344 134.888 122.312L133.964 122.048C133.372 121.88 132.944 121.644 132.68 121.34C132.416 121.036 132.284 120.684 132.284 120.284C132.284 119.908 132.38 119.58 132.572 119.3C132.764 119.02 133.024 118.804 133.352 118.652C133.68 118.5 134.044 118.424 134.444 118.424C134.988 118.424 135.48 118.568 135.92 118.856C136.368 119.136 136.684 119.528 136.868 120.032L136.1 120.392C135.94 120.032 135.708 119.752 135.404 119.552C135.108 119.344 134.776 119.24 134.408 119.24C134.048 119.24 133.76 119.332 133.544 119.516C133.328 119.7 133.22 119.932 133.22 120.212C133.22 120.428 133.276 120.6 133.388 120.728C133.5 120.856 133.628 120.952 133.772 121.016C133.924 121.08 134.056 121.128 134.168 121.16L135.236 121.472C135.756 121.624 136.16 121.86 136.448 122.18C136.744 122.5 136.892 122.876 136.892 123.308C136.892 123.66 136.792 123.976 136.592 124.256C136.4 124.536 136.132 124.756 135.788 124.916C135.444 125.068 135.048 125.144 134.6 125.144ZM141.282 125.144C140.682 125.144 140.138 125 139.65 124.712C139.17 124.416 138.79 124.012 138.51 123.5C138.23 122.988 138.09 122.408 138.09 121.76C138.09 121.112 138.226 120.54 138.498 120.044C138.77 119.54 139.138 119.144 139.602 118.856C140.074 118.568 140.602 118.424 141.186 118.424C141.65 118.424 142.062 118.512 142.422 118.688C142.79 118.856 143.102 119.088 143.358 119.384C143.614 119.672 143.81 120 143.946 120.368C144.082 120.728 144.15 121.1 144.15 121.484C144.15 121.564 144.146 121.656 144.138 121.76C144.13 121.856 144.118 121.956 144.102 122.06H138.666V121.22H143.586L143.154 121.58C143.226 121.14 143.174 120.748 142.998 120.404C142.83 120.052 142.586 119.776 142.266 119.576C141.946 119.368 141.586 119.264 141.186 119.264C140.786 119.264 140.414 119.368 140.07 119.576C139.734 119.784 139.47 120.076 139.278 120.452C139.086 120.82 139.01 121.26 139.05 121.772C139.01 122.284 139.09 122.732 139.29 123.116C139.498 123.492 139.778 123.784 140.13 123.992C140.49 124.2 140.874 124.304 141.282 124.304C141.754 124.304 142.15 124.192 142.47 123.968C142.79 123.744 143.05 123.464 143.25 123.128L144.018 123.536C143.89 123.824 143.694 124.092 143.43 124.34C143.166 124.58 142.85 124.776 142.482 124.928C142.122 125.072 141.722 125.144 141.282 125.144ZM145.616 125V118.568H146.516V119.624L146.396 119.468C146.548 119.164 146.776 118.924 147.08 118.748C147.392 118.572 147.768 118.484 148.208 118.484H148.616V119.384H148.052C147.588 119.384 147.216 119.528 146.936 119.816C146.656 120.104 146.516 120.512 146.516 121.04V125H145.616Z" fill="#1A202C"/>
<path d="M150.32 127.28V114.86H151.28V127.28H150.32Z" fill="#1A202C"/>
<path d="M81.996 160V151.06H85.152C85.744 151.06 86.264 151.172 86.712 151.396C87.16 151.62 87.508 151.94 87.756 152.356C88.012 152.772 88.14 153.26 88.14 153.82C88.14 154.38 88.012 154.868 87.756 155.284C87.508 155.692 87.16 156.012 86.712 156.244C86.272 156.468 85.752 156.58 85.152 156.58H83.172V160H81.996ZM83.172 155.5H85.188C85.548 155.5 85.86 155.432 86.124 155.296C86.388 155.16 86.592 154.964 86.736 154.708C86.88 154.452 86.952 154.156 86.952 153.82C86.952 153.476 86.88 153.18 86.736 152.932C86.592 152.676 86.388 152.48 86.124 152.344C85.86 152.208 85.548 152.14 85.188 152.14H83.172V155.5ZM90.8091 160.144C90.3851 160.144 90.0091 160.068 89.6811 159.916C89.3611 159.756 89.1091 159.54 88.9251 159.268C88.7411 158.988 88.6491 158.668 88.6491 158.308C88.6491 157.964 88.7211 157.656 88.8651 157.384C89.0171 157.104 89.2491 156.868 89.5611 156.676C89.8811 156.484 90.2811 156.348 90.7611 156.268L93.1611 155.872V156.808L91.0131 157.168C90.5971 157.24 90.2931 157.372 90.1011 157.564C89.9171 157.756 89.8251 157.992 89.8251 158.272C89.8251 158.536 89.9291 158.756 90.1371 158.932C90.3531 159.108 90.6211 159.196 90.9411 159.196C91.3491 159.196 91.7011 159.112 91.9971 158.944C92.3011 158.768 92.5371 158.532 92.7051 158.236C92.8811 157.94 92.9691 157.612 92.9691 157.252V155.608C92.9691 155.256 92.8371 154.972 92.5731 154.756C92.3171 154.532 91.9771 154.42 91.5531 154.42C91.1851 154.42 90.8571 154.516 90.5691 154.708C90.2891 154.892 90.0811 155.14 89.9451 155.452L88.9731 154.948C89.0931 154.652 89.2851 154.388 89.5491 154.156C89.8131 153.916 90.1211 153.728 90.4731 153.592C90.8251 153.456 91.1931 153.388 91.5771 153.388C92.0731 153.388 92.5091 153.484 92.8851 153.676C93.2611 153.86 93.5531 154.12 93.7611 154.456C93.9771 154.784 94.0851 155.168 94.0851 155.608V160H92.9931V158.776L93.1971 158.848C93.0611 159.104 92.8771 159.328 92.6451 159.52C92.4131 159.712 92.1411 159.864 91.8291 159.976C91.5171 160.088 91.1771 160.144 90.8091 160.144ZM97.8914 160.144C97.2434 160.144 96.6794 159.984 96.1994 159.664C95.7194 159.344 95.3794 158.912 95.1794 158.368L96.0674 157.936C96.2514 158.32 96.5034 158.624 96.8234 158.848C97.1434 159.072 97.4994 159.184 97.8914 159.184C98.2434 159.184 98.5354 159.1 98.7674 158.932C98.9994 158.764 99.1154 158.544 99.1154 158.272C99.1154 158.08 99.0594 157.928 98.9474 157.816C98.8434 157.696 98.7154 157.604 98.5634 157.54C98.4114 157.468 98.2714 157.416 98.1434 157.384L97.1714 157.108C96.5874 156.94 96.1594 156.7 95.8874 156.388C95.6234 156.076 95.4914 155.712 95.4914 155.296C95.4914 154.912 95.5874 154.58 95.7794 154.3C95.9794 154.012 96.2474 153.788 96.5834 153.628C96.9274 153.468 97.3114 153.388 97.7354 153.388C98.3034 153.388 98.8114 153.532 99.2594 153.82C99.7154 154.108 100.039 154.512 100.231 155.032L99.3194 155.452C99.1754 155.116 98.9594 154.852 98.6714 154.66C98.3834 154.46 98.0594 154.36 97.6994 154.36C97.3714 154.36 97.1114 154.444 96.9194 154.612C96.7274 154.772 96.6314 154.976 96.6314 155.224C96.6314 155.408 96.6794 155.56 96.7754 155.68C96.8714 155.792 96.9874 155.88 97.1234 155.944C97.2594 156 97.3914 156.048 97.5194 156.088L98.5754 156.4C99.1034 156.552 99.5114 156.788 99.7994 157.108C100.095 157.428 100.243 157.812 100.243 158.26C100.243 158.62 100.143 158.944 99.9434 159.232C99.7434 159.52 99.4674 159.744 99.1154 159.904C98.7634 160.064 98.3554 160.144 97.8914 160.144ZM103.78 160.144C103.132 160.144 102.568 159.984 102.088 159.664C101.608 159.344 101.268 158.912 101.068 158.368L101.956 157.936C102.14 158.32 102.392 158.624 102.712 158.848C103.032 159.072 103.388 159.184 103.78 159.184C104.132 159.184 104.424 159.1 104.656 158.932C104.888 158.764 105.004 158.544 105.004 158.272C105.004 158.08 104.948 157.928 104.836 157.816C104.732 157.696 104.604 157.604 104.452 157.54C104.3 157.468 104.16 157.416 104.032 157.384L103.06 157.108C102.476 156.94 102.048 156.7 101.776 156.388C101.512 156.076 101.38 155.712 101.38 155.296C101.38 154.912 101.476 154.58 101.668 154.3C101.868 154.012 102.136 153.788 102.472 153.628C102.816 153.468 103.2 153.388 103.624 153.388C104.192 153.388 104.7 153.532 105.148 153.82C105.604 154.108 105.928 154.512 106.12 155.032L105.208 155.452C105.064 155.116 104.848 154.852 104.56 154.66C104.272 154.46 103.948 154.36 103.588 154.36C103.26 154.36 103 154.444 102.808 154.612C102.616 154.772 102.52 154.976 102.52 155.224C102.52 155.408 102.568 155.56 102.664 155.68C102.76 155.792 102.876 155.88 103.012 155.944C103.148 156 103.28 156.048 103.408 156.088L104.464 156.4C104.992 156.552 105.4 156.788 105.688 157.108C105.984 157.428 106.132 157.812 106.132 158.26C106.132 158.62 106.032 158.944 105.832 159.232C105.632 159.52 105.356 159.744 105.004 159.904C104.652 160.064 104.244 160.144 103.78 160.144ZM108.724 160L106.504 153.532H107.74L109.504 158.944L109.072 158.932L110.8 153.532H111.856L113.584 158.932L113.152 158.944L114.928 153.532H116.152L113.932 160H112.864L111.16 154.6H111.496L109.792 160H108.724ZM119.865 160.144C119.241 160.144 118.677 160 118.173 159.712C117.669 159.416 117.269 159.012 116.973 158.5C116.677 157.988 116.529 157.408 116.529 156.76C116.529 156.112 116.673 155.536 116.961 155.032C117.257 154.528 117.657 154.128 118.161 153.832C118.665 153.536 119.233 153.388 119.865 153.388C120.489 153.388 121.053 153.536 121.557 153.832C122.061 154.12 122.457 154.516 122.745 155.02C123.041 155.524 123.189 156.104 123.189 156.76C123.189 157.416 123.037 158 122.733 158.512C122.429 159.016 122.025 159.416 121.521 159.712C121.025 160 120.473 160.144 119.865 160.144ZM119.865 159.064C120.265 159.064 120.625 158.964 120.945 158.764C121.273 158.564 121.529 158.288 121.713 157.936C121.905 157.584 122.001 157.192 122.001 156.76C122.001 156.32 121.905 155.932 121.713 155.596C121.529 155.252 121.273 154.98 120.945 154.78C120.625 154.572 120.265 154.468 119.865 154.468C119.457 154.468 119.089 154.572 118.761 154.78C118.441 154.98 118.185 155.252 117.993 155.596C117.801 155.932 117.705 156.32 117.705 156.76C117.705 157.192 117.801 157.584 117.993 157.936C118.185 158.288 118.441 158.564 118.761 158.764C119.089 158.964 119.457 159.064 119.865 159.064ZM124.404 160V153.532H125.496V154.72L125.376 154.552C125.528 154.184 125.76 153.912 126.072 153.736C126.384 153.552 126.764 153.46 127.212 153.46H127.608V154.516H127.044C126.588 154.516 126.22 154.66 125.94 154.948C125.66 155.228 125.52 155.628 125.52 156.148V160H124.404ZM131.3 160.144C130.692 160.144 130.144 159.996 129.656 159.7C129.176 159.404 128.796 159 128.516 158.488C128.236 157.976 128.096 157.404 128.096 156.772C128.096 156.124 128.236 155.548 128.516 155.044C128.796 154.532 129.176 154.128 129.656 153.832C130.144 153.536 130.692 153.388 131.3 153.388C131.836 153.388 132.312 153.504 132.728 153.736C133.144 153.96 133.472 154.264 133.712 154.648L133.532 154.924V150.916H134.66V160H133.568V158.62L133.712 158.812C133.488 159.236 133.16 159.564 132.728 159.796C132.304 160.028 131.828 160.144 131.3 160.144ZM131.396 159.064C131.804 159.064 132.168 158.964 132.488 158.764C132.808 158.564 133.06 158.292 133.244 157.948C133.436 157.596 133.532 157.204 133.532 156.772C133.532 156.332 133.436 155.94 133.244 155.596C133.06 155.244 132.808 154.968 132.488 154.768C132.168 154.568 131.804 154.468 131.396 154.468C130.996 154.468 130.632 154.572 130.304 154.78C129.984 154.98 129.732 155.252 129.548 155.596C129.364 155.932 129.272 156.324 129.272 156.772C129.272 157.204 129.364 157.596 129.548 157.948C129.732 158.292 129.984 158.564 130.304 158.764C130.624 158.964 130.988 159.064 131.396 159.064Z" fill="#1A202C"/>
<rect x="81" y="169" width="144" height="30" rx="2" fill="#F3F5F7"/>
<circle cx="95.5" cy="184.5" r="2.5" fill="#1A202C"/>
<circle cx="106.5" cy="184.5" r="2.5" fill="#1A202C"/>
<circle cx="117.5" cy="184.5" r="2.5" fill="#1A202C"/>
<circle cx="128.5" cy="184.5" r="2.5" fill="#1A202C"/>
<circle cx="139.5" cy="184.5" r="2.5" fill="#1A202C"/>
<circle cx="150.5" cy="184.5" r="2.5" fill="#1A202C"/>
<circle cx="161.5" cy="184.5" r="2.5" fill="#1A202C"/>
<circle cx="172.5" cy="184.5" r="2.5" fill="#1A202C"/>
<circle cx="183.5" cy="184.5" r="2.5" fill="#1A202C"/>
<circle cx="25" cy="25" r="28" fill="#7C5CFC" stroke="#0D121F" stroke-width="6"/>
<path d="M24.5248 35V19.52H21.0928V17.12H27.3328V35H24.5248Z" fill="white"/>
</svg>
